<svg xmlns="http://www.w3.org/2000/svg" viewBox="0 0 481.967 475.082"><defs><linearGradient id="a" x1="240.984" x2="240.984" y1="15.46" y2="459.622" gradientUnits="userSpaceOnUse"><stop offset="0" stop-color="#2aabee"/><stop offset="1" stop-color="#229ed9"/></linearGradient></defs><path d="M18.903 15.46h444.161v444.161H18.903z" style="fill:url(#a)"/><path d="M198.446 237.654q97.127-42.307 129.5-55.784c61.697-25.654 74.502-30.11 82.864-30.259 1.838-.031 5.934.424 8.606 2.585a9.554 9.554 0 0 1 3.158 6.014 39.308 39.308 0 0 1 .347 8.74c-3.331 35.117-17.8 120.334-25.157 159.666-3.09 16.643-9.231 22.223-15.165 22.768-12.909 1.187-22.694-8.522-35.186-16.709-19.536-12.815-30.571-20.789-49.551-33.291-21.93-14.45-7.704-22.392 4.788-35.37 3.262-3.397 60.1-55.083 61.176-59.771.139-.586.278-2.773-1.04-3.925-1.285-1.155-3.193-.76-4.58-.447q-2.966.666-93.69 61.915-13.272 9.13-24.082 8.897c-7.911-.17-23.18-4.483-34.528-8.168-13.88-4.521-24.949-6.912-23.978-14.591q.73-5.997 16.517-12.27Z" style="fill:#fff" transform="translate(-79.016 -2.459)"/><path d="M0 0h481.967v475.082H0z" style="fill:none"/></svg>