<svg xmlns="http://www.w3.org/2000/svg" xml:space="preserve" style="enable-background:new 0 0 584 584" viewBox="0 0 584 584"><defs><path id="a" d="M584 435.8c0 3.2-.1 10.1-.3 15.5-.5 13.1-1.5 30-3.1 37.7-2.4 11.6-5.9 22.5-10.6 31.6-5.5 10.8-12.5 20.4-20.9 28.7-8.3 8.3-17.9 15.3-28.7 20.8-9.1 4.7-20.1 8.2-31.8 10.6-7.6 1.5-24.4 2.6-37.4 3-5.4.2-12.3.3-15.5.3H148.1c-3.2 0-10.1-.1-15.5-.3-13.1-.5-30-1.5-37.7-3.1-11.6-2.4-22.5-5.9-31.6-10.6-10.8-5.5-20.4-12.5-28.7-20.9-8.3-8.3-15.3-17.9-20.8-28.7-4.7-9.1-8.2-20.1-10.6-31.8-1.5-7.6-2.6-24.4-3-37.4-.1-5.3-.2-12.2-.2-15.4V148.2c0-3.2.1-10.1.3-15.5.5-13.1 1.5-30 3.1-37.7C5.8 83.4 9.3 72.5 14 63.4 19.5 52.6 26.5 43 34.8 34.7s17.9-15.3 28.7-20.8c9.1-4.7 20.1-8.2 31.8-10.6 7.6-1.5 24.4-2.6 37.4-3C138.1.1 145 0 148.2 0h287.6c3.2 0 10.1.1 15.5.3 13.1.5 30 1.5 37.7 3.1 11.6 2.4 22.5 5.9 31.6 10.6 10.8 5.5 20.4 12.5 28.7 20.9 8.3 8.3 15.3 17.9 20.8 28.7 4.7 9.1 8.2 20.1 10.6 31.8 1.5 7.6 2.6 24.4 3 37.4.2 5.4.3 12.3.3 15.5v287.5z"/></defs><linearGradient id="b" x1="292.022" x2="292.022" y1="584.045" y2="0" gradientUnits="userSpaceOnUse"><stop offset="0" style="stop-color:#25cf43"/><stop offset="1" style="stop-color:#61fd7d"/></linearGradient><use href="#a" style="overflow:visible;fill-rule:evenodd;clip-rule:evenodd;fill:url(#b)"/><path d="M445.6 139.8c-39.3-39.3-91.6-61-147.3-61-114.8 0-208.1 93.4-208.2 208.1 0 36.7 9.6 72.5 27.8 104L88.4 498.8l110.4-28.9c30.4 16.6 64.6 25.3 99.5 25.3h.1c114.7 0 208.1-93.4 208.2-208.1 0-55.7-21.7-108-61-147.3zM298.4 460c-31.1 0-61.6-8.4-88.1-24.1l-6.3-3.7-65.5 17.2 17.5-63.8-4.1-6.5c-17.3-27.5-26.5-59.4-26.5-92.1 0-95.4 77.7-173 173.1-173 46.2 0 89.7 18 122.3 50.7 32.7 32.7 50.7 76.2 50.6 122.4-.1 95.3-77.7 172.9-173 172.9zm94.9-129.5c-5.2-2.6-30.8-15.2-35.5-16.9-4.8-1.7-8.2-2.6-11.7 2.6s-13.4 16.9-16.5 20.4c-3 3.5-6.1 3.9-11.3 1.3-5.2-2.6-22-8.1-41.8-25.8-15.5-13.8-25.9-30.8-28.9-36s-.3-8 2.3-10.6c2.3-2.3 5.2-6.1 7.8-9.1 2.6-3 3.5-5.2 5.2-8.7 1.7-3.5.9-6.5-.4-9.1-1.3-2.6-11.7-28.2-16-38.6-4.2-10.1-8.5-8.8-11.7-8.9-3-.2-6.5-.2-10-.2s-9.1 1.3-13.9 6.5c-4.8 5.2-18.2 17.8-18.2 43.4 0 25.6 18.6 50.3 21.2 53.8 2.6 3.5 36.7 56 88.9 78.5 12.4 5.4 22.1 8.6 29.7 11 12.5 4 23.8 3.4 32.8 2.1 10-1.5 30.8-12.6 35.1-24.7 4.3-12.1 4.3-22.6 3-24.7-1.5-2.4-4.9-3.7-10.1-6.3z" style="fill-rule:evenodd;clip-rule:evenodd;fill:#fff"/></svg>